PathFileType	4	(X/Y/Z)	c:/Users/goper/Files/vsCode/490R/osim_files/A03/A03_Slow_06.trc
DataRate	CameraRate	NumFrames	NumMarkers	Units                	OrigDataRate	OrigDataStartFrame	OrigNumFrames
250.00	250.00	7	36	mm	250.0	1118	2981
                Frame#	Time	LPSIS			LASIS			LTH1			LTH2			LTH3			LTH4			LLFE			LMFE			LSH1			LSH2			LSH3			LSH4			LLMAL			LMMAL			LCAL			LMTP5			LTOE			LMTP1			RPSIS			RASIS			RTH1			RTH2			RTH3			RTH4			RLFE			RMFE			RSH1			RSH2			RSH3			RSH4			RLMAL			RMMAL			RCAL			RMTP1			RTOE			RMTP5		
		X1	Y1	Z1	X2	Y2	Z2	X3	Y3	Z3	X4	Y4	Z4	X5	Y5	Z5	X6	Y6	Z6	X7	Y7	Z7	X8	Y8	Z8	X9	Y9	Z9	X10	Y10	Z10	X11	Y11	Z11	X12	Y12	Z12	X13	Y13	Z13	X14	Y14	Z14	X15	Y15	Z15	X16	Y16	Z16	X17	Y17	Z17	X18	Y18	Z18	X19	Y19	Z19	X20	Y20	Z20	X21	Y21	Z21	X22	Y22	Z22	X23	Y23	Z23	X24	Y24	Z24	X25	Y25	Z25	X26	Y26	Z26	X27	Y27	Z27	X28	Y28	Z28	X29	Y29	Z29	X30	Y30	Z30	X31	Y31	Z31	X32	Y32	Z32	X33	Y33	Z33	X34	Y34	Z34	X35	Y35	Z35	X36	Y36	Z36

1118	4.46800	1611.50439	1071.82898	213.05946	1378.11609	1004.62909	352.41064	1319.87671	662.27301	441.05847	1305.16809	621.76642	447.82513	1260.97498	673.01013	425.90875	1256.40210	630.34875	431.98767	1306.97241	567.69891	438.05527	1266.84546	553.28473	286.48215	1392.05933	530.19684	423.74765	1421.07324	491.70602	417.21417	1347.40430	484.48083	423.07169	1384.53760	455.40393	412.29794	1628.86218	240.36215	346.51544	1595.75159	240.27730	252.30347	1674.71423	275.17090	285.00534	1554.21680	99.18966	366.52383	0.00000	0.00000	0.00000	1523.17297	111.22639	256.96951	1606.48279	1079.90723	131.16644	1350.99036	991.62744	54.65688	1416.04407	615.75757	27.23134	1414.49377	576.59155	29.12381	1355.17651	620.78278	30.95764	1358.33276	580.64221	34.64061	1388.95654	546.50049	45.25043	1345.35535	557.43878	165.36913	1444.33643	480.52377	46.40107	1441.70764	436.37543	36.24544	1378.14490	468.92862	43.90443	1390.26245	424.26132	30.76233	1442.97156	123.23578	91.73360	0.00000	0.00000	0.00000	1491.86169	90.16460	157.43033	1282.81226	55.11367	183.64159	1259.43909	77.31110	134.98143	1292.51172	44.55527	68.49688
1119	4.47200	1608.22253	1072.55432	212.95044	1374.59546	1005.55713	351.98190	1313.67261	664.02319	440.23965	1298.19617	623.48602	447.33597	1255.87598	674.66833	423.84018	1249.40051	631.68140	430.51300	1299.64758	569.04291	436.99301	1260.03845	555.38684	285.29425	1384.71472	530.42523	423.09668	1413.49829	491.83710	416.77307	1339.23242	485.64944	422.16272	1375.16125	455.89401	411.37753	1615.92688	236.38823	346.41891	1584.19141	237.15324	252.40042	1663.64868	270.69962	285.52402	1539.62280	96.85275	366.38922	0.00000	0.00000	0.00000	1509.59143	109.09218	256.93573	1603.19690	1080.65137	131.04521	1347.97314	991.74335	54.40912	1414.82336	615.99261	27.24554	1414.21021	577.82300	29.66877	0.00000	0.00000	0.00000	1357.35645	580.60382	34.66284	1383.77405	544.77802	46.74165	1344.67981	557.28601	165.37973	1443.79822	480.72522	46.52886	1441.25037	436.61295	36.34423	1377.61035	468.98410	43.93567	1389.87500	424.34552	30.80801	1442.98865	123.31602	91.65736	0.00000	0.00000	0.00000	1491.89868	90.27417	157.31587	1283.79688	54.70430	183.57817	1259.44885	77.28196	134.94804	1292.53662	44.56219	68.41413
1120	4.47600	1604.89624	1073.24890	212.88821	1371.10486	1006.51361	351.61975	1307.42993	665.63928	439.38562	1291.81580	625.35919	446.33630	1249.07349	676.97223	422.41367	1244.45715	634.04010	429.57785	1292.72864	570.70709	435.97241	1254.14807	557.83984	284.26840	1377.89868	530.60590	422.11765	1406.09399	491.51801	415.73831	1332.03723	486.79074	421.64966	1366.59802	456.23047	410.67044	1602.01440	233.83499	345.87979	1572.42773	233.86496	252.50406	1658.80420	264.74710	283.11588	1524.96155	94.55910	366.37497	0.00000	0.00000	0.00000	1495.50720	107.16040	256.64984	1599.94678	1081.37061	130.94028	1344.92285	991.84882	54.16159	1413.61829	616.20844	27.29946	1412.68494	576.95325	29.20820	1352.70837	620.62256	31.08350	1356.28088	580.55475	34.71205	1385.68469	545.09851	46.02406	0.00000	0.00000	0.00000	1443.19702	480.90533	46.66764	1440.77625	436.84106	36.43439	1377.05774	469.07898	43.97900	1389.33264	424.38837	30.87659	1443.00684	123.38943	91.55618	0.00000	0.00000	0.00000	1491.90137	90.33557	157.20380	1283.84448	54.77705	183.49521	1259.34827	77.23039	135.15802	1292.53528	44.53559	68.40255
1121	4.48000	1601.56165	1073.90942	212.88350	1368.16870	1007.11218	351.49973	1301.44885	667.27667	438.54257	1285.40771	627.21466	445.24539	1243.17029	679.07404	421.12680	1238.22058	636.19177	428.24741	1286.38489	572.49811	434.96335	1247.56824	559.74628	283.09674	1370.68616	530.75531	421.40485	1397.72998	491.06628	415.18115	1323.10449	487.52686	420.46005	1357.73376	456.30127	409.80807	1590.36072	230.24701	346.72198	1560.53394	230.43619	252.65015	1644.52869	261.46948	285.20538	0.00000	0.00000	0.00000	0.00000	0.00000	0.00000	1481.44824	105.14462	256.64709	1596.71631	1082.05078	130.86685	1342.04480	991.93970	53.87392	1412.44568	616.43219	27.28442	1411.57031	576.93262	29.13646	1351.53870	620.66229	31.03286	1354.80383	580.31781	34.66830	1386.47314	546.64703	45.41105	1350.77783	556.89301	164.65350	1442.57434	481.12372	46.77588	1440.28149	437.05466	36.54506	1376.45715	469.14233	44.00586	1388.87585	424.52115	30.96278	1443.01160	123.47273	91.45377	0.00000	0.00000	0.00000	1491.88831	90.42358	157.10513	1282.95728	55.34990	183.44753	1258.80762	77.16434	135.79620	1292.52124	44.50095	68.36778
1122	4.48400	1598.26697	1074.52271	212.90659	1363.99915	1008.13733	350.94485	1295.31116	668.70691	437.59259	1279.11096	628.95160	444.17294	1237.54993	680.71198	419.82617	1231.07544	637.97455	426.57327	1279.69543	573.84540	433.92529	1241.43469	561.83514	281.97003	1363.53455	530.85242	420.70303	1390.26599	490.81363	414.56686	1315.32263	488.27145	419.73895	1349.65552	456.40958	409.16287	1577.46948	225.97052	346.93958	1548.63721	227.00047	252.86830	1631.87439	255.94156	285.59753	0.00000	0.00000	0.00000	1915.21472	495.75864	707.07886	0.00000	0.00000	0.00000	1593.46509	1082.72791	130.77170	1342.31360	993.32092	53.92822	1411.13733	616.57550	27.35300	1410.97827	578.37183	29.87162	1350.27820	620.60760	31.05777	1354.19812	580.50867	34.73334	1384.66223	547.13928	45.56819	1342.04968	557.03583	165.48772	1441.94092	481.29929	46.87817	1439.68872	437.20819	36.66882	1375.83081	469.18097	44.05866	0.00000	0.00000	0.00000	1443.02356	123.55940	91.36293	0.00000	0.00000	0.00000	1491.90308	90.49937	156.98233	1282.56641	54.86546	183.47749	1257.11243	78.55508	135.42877	1292.55603	44.50216	68.29120
1123	4.48800	1594.96423	1075.12451	212.90588	1360.55359	1008.87799	350.62274	1290.35767	671.29126	438.16748	1272.97217	630.65656	443.08481	1232.92078	683.04449	418.89383	1226.08545	640.37262	425.56085	1273.39526	575.36969	432.88519	1235.78528	564.00507	280.85870	1356.43433	530.83301	419.95929	1381.57202	489.81192	413.93478	1308.41943	489.48004	419.16656	1341.97388	456.84738	408.65778	1565.48706	222.43735	347.27307	1536.53455	223.46394	253.01796	1620.19238	250.96292	286.03842	1480.51538	87.61868	367.25867	0.00000	0.00000	0.00000	1462.74719	99.77435	255.73538	1590.20190	1083.35767	130.67485	1339.43665	993.38385	53.69553	1409.84937	616.76385	27.36154	1409.86340	578.54688	29.89330	1348.96765	620.53894	31.10930	1353.09546	580.45306	34.77766	1383.70715	547.15747	45.60518	1340.91187	556.93402	165.65479	1441.24744	481.46945	46.97845	1439.12842	437.43335	36.73631	1374.93774	468.89377	43.95612	0.00000	0.00000	0.00000	1443.02209	123.62385	91.25503	0.00000	0.00000	0.00000	1491.93799	90.58353	156.88585	1282.58813	54.94179	183.40701	1257.18384	78.63549	135.33066	1292.57031	44.48254	68.23811
1124	4.49200	1591.67761	1075.69165	212.93582	1357.14966	1009.53510	350.30176	1284.34924	672.68732	437.10110	1267.35730	632.32025	442.02063	1227.42798	685.00549	417.68228	1220.25708	642.42328	424.23026	1267.51196	576.78436	431.87570	1229.55774	565.74084	279.68707	1348.47241	530.18420	419.23987	1374.73157	489.82288	413.33948	1299.97839	490.45618	418.12094	1333.67371	457.08224	407.98663	1552.90979	218.50333	347.56870	1524.18530	219.76767	253.20294	1607.64368	245.47180	285.94943	1462.79407	86.06623	366.32205	0.00000	0.00000	0.00000	1448.22632	97.62082	255.84813	1586.96338	1083.95520	130.59396	1336.41382	993.47192	53.51197	1408.51111	616.97095	27.39995	1408.84607	578.67401	29.82896	0.00000	0.00000	0.00000	1351.96790	580.38611	34.84188	1381.07837	545.64905	46.48056	1348.93445	554.61017	164.55469	1440.53320	481.63159	47.05503	1438.50952	437.61139	36.78042	1375.85083	470.73679	42.09243	0.00000	0.00000	0.00000	1443.00623	123.68300	91.16252	0.00000	0.00000	0.00000	1491.93945	90.65153	156.81111	1282.49268	54.89190	183.42503	1257.27258	78.68887	135.26343	1292.56445	44.46883	68.21765
